<?xml version="1.0" standalone="no"?>
<!DOCTYPE svg PUBLIC "-//W3C//DTD SVG 20010904//EN"
 "http://www.w3.org/TR/2001/REC-SVG-20010904/DTD/svg10.dtd">
<svg version="1.0" xmlns="http://www.w3.org/2000/svg"
 width="309.000000pt" height="450.000000pt" viewBox="0 0 309.000000 450.000000"
 preserveAspectRatio="xMidYMid meet">

<g transform="translate(0.000000,450.000000) scale(0.100000,-0.100000)"
fill="#000000" stroke="none">
<path d="M2272 4403 c-32 -6 -68 -39 -98 -90 -21 -36 -24 -50 -18 -93 4 -27 9
-50 13 -50 12 0 6 -63 -6 -67 -7 -3 -25 5 -39 16 -33 26 -54 26 -105 0 -31
-15 -50 -19 -84 -14 -36 6 -47 3 -64 -14 -44 -44 -65 -21 -76 84 -6 51 -12 65
-44 96 -70 70 -141 61 -198 -25 -26 -38 -33 -59 -33 -97 0 -27 5 -49 10 -49 6
0 10 -8 10 -18 0 -10 11 -28 25 -40 14 -12 25 -19 25 -16 0 3 11 -7 25 -22 14
-15 25 -23 25 -19 0 4 6 2 13 -4 8 -6 17 -8 20 -4 14 13 6 -44 -8 -63 -19 -25
-19 -59 0 -78 8 -8 15 -24 15 -34 0 -35 11 -52 35 -52 12 0 30 -9 40 -20 19
-21 64 -27 81 -10 7 7 16 4 29 -10 23 -26 63 -26 90 0 19 18 26 19 49 9 30
-14 72 2 81 30 3 12 18 16 53 16 31 0 58 7 77 20 17 10 39 21 50 22 23 4 65
48 65 69 0 8 9 25 20 37 29 31 35 63 16 92 -25 39 -20 89 13 127 37 42 62 124
52 170 -19 84 -72 117 -159 101z m53 -33 c3 -6 -1 -7 -9 -4 -18 7 -21 14 -7
14 6 0 13 -4 16 -10z m-58 -6 c-3 -3 -12 -4 -19 -1 -8 3 -5 6 6 6 11 1 17 -2
13 -5z m-478 -279 c0 -5 -4 -3 -9 5 -5 8 -9 22 -9 30 0 16 17 -16 18 -35z
m-34 5 c3 -5 -1 -10 -10 -10 -9 0 -13 5 -10 10 3 6 8 10 10 10 2 0 7 -4 10
-10z m-58 -72 c-3 -8 -6 -5 -6 6 -1 11 2 17 5 13 3 -3 4 -12 1 -19z"/>
<path d="M2825 4035 c17 -8 39 -14 50 -14 l20 0 -20 8 c-11 4 -33 11 -50 14
l-30 6 30 -14z"/>
<path d="M2022 3524 c-12 -21 -4 -51 13 -58 8 -3 24 3 36 13 18 15 20 21 10
39 -14 26 -46 29 -59 6z"/>
<path d="M2180 3511 c-15 -29 -2 -51 30 -51 20 0 31 6 35 20 14 43 -44 69 -65
31z"/>
<path d="M1155 3283 c-100 -23 -172 -74 -200 -141 -26 -61 -40 -198 -26 -255
14 -57 32 -109 40 -117 3 -3 11 -14 17 -24 15 -29 31 -30 51 -5 64 79 203 181
283 209 25 8 50 18 55 21 6 4 31 10 58 13 56 8 59 20 25 99 -23 55 -90 128
-149 162 -30 17 -116 46 -129 44 -3 -1 -14 -3 -25 -6z m5 -403 c0 -5 -5 -10
-11 -10 -5 0 -7 5 -4 10 3 6 8 10 11 10 2 0 4 -4 4 -10z m-135 -119 c3 -5 1
-12 -5 -16 -5 -3 -10 1 -10 9 0 18 6 21 15 7z"/>
<path d="M334 2989 c-17 -22 -34 -80 -27 -92 4 -6 1 -7 -7 -2 -9 6 -10 2 -5
-15 4 -14 3 -20 -3 -16 -5 3 -15 -9 -22 -27 -32 -87 -40 -107 -65 -167 -14
-36 -27 -72 -29 -80 -2 -8 -6 -22 -9 -30 -23 -62 -27 -84 -16 -91 36 -22 193
72 227 135 51 94 60 187 28 291 -20 65 -57 113 -72 94z"/>
<path d="M2399 2932 c-14 -9 -48 -32 -75 -50 -56 -37 -66 -36 -163 9 -67 31
-91 36 -91 19 0 -6 40 -29 90 -53 100 -47 96 -40 109 -165 12 -108 8 -119 -43
-133 -63 -17 -147 -60 -143 -72 5 -16 31 -11 92 16 45 20 66 22 208 21 147 -1
157 0 157 17 0 11 -1 19 -2 20 -2 0 -50 3 -108 6 -58 3 -108 8 -112 12 -4 3
-12 55 -18 115 -11 103 -11 110 6 123 11 7 24 16 29 21 36 29 106 72 113 68 4
-2 8 7 8 20 2 29 -18 31 -57 6z"/>
<path d="M570 2260 c-69 -9 -113 -31 -168 -84 -97 -93 -111 -321 -28 -447 42
-62 96 -90 186 -96 52 -4 79 -2 84 6 4 6 14 11 22 11 23 0 124 52 125 64 1 6
2 94 3 196 1 102 6 210 10 242 l9 56 -39 20 c-22 11 -57 22 -79 26 -22 4 -47
8 -55 10 -8 2 -40 0 -70 -4z m127 -576 c-3 -3 -12 -4 -19 -1 -8 3 -5 6 6 6 11
1 17 -2 13 -5z"/>
<path d="M1802 2222 c-21 -48 -24 -142 -9 -228 18 -100 38 -142 84 -184 50
-46 82 -60 136 -60 52 0 147 27 147 41 0 5 6 9 14 9 21 0 102 87 116 123 7 18
16 41 21 52 16 37 39 142 39 177 0 19 -5 49 -11 67 l-11 31 -257 0 -256 0 -13
-28z"/>
<path d="M812 2000 c0 -14 2 -19 5 -12 2 6 2 18 0 25 -3 6 -5 1 -5 -13z"/>
<path d="M813 1820 c0 -25 2 -35 4 -22 2 12 2 32 0 45 -2 12 -4 2 -4 -23z"/>
<path d="M2330 1584 c-25 -7 -59 -27 -77 -44 -31 -30 -31 -30 -25 -116 3 -55
0 -100 -8 -127 -27 -89 -52 -154 -76 -194 -27 -46 -24 -64 15 -103 71 -69 192
-99 282 -69 42 15 118 70 119 87 0 6 4 12 9 12 5 0 25 26 44 58 30 50 43 87
61 170 6 30 -14 152 -25 152 -5 0 -9 7 -9 15 0 8 -4 15 -10 15 -5 0 -10 5 -10
11 0 22 -56 88 -98 114 -51 33 -122 40 -192 19z"/>
<path d="M842 1550 c0 -14 2 -19 5 -12 2 6 2 18 0 25 -3 6 -5 1 -5 -13z"/>
<path d="M851 1504 c0 -11 3 -14 6 -6 3 7 2 16 -1 19 -3 4 -6 -2 -5 -13z"/>
<path d="M119 1469 c-8 -22 35 -182 45 -172 5 4 6 3 2 -4 -11 -19 40 -189 91
-303 39 -87 56 -125 59 -129 2 -2 21 10 43 25 25 18 53 54 76 96 31 58 36 77
37 140 1 40 -2 89 -6 108 -18 76 -101 172 -187 215 -59 30 -154 44 -160 24z"/>
<path d="M871 1424 c0 -11 3 -14 6 -6 3 7 2 16 -1 19 -3 4 -6 -2 -5 -13z"/>
<path d="M1010 1100 c6 -11 13 -20 16 -20 2 0 0 9 -6 20 -6 11 -13 20 -16 20
-2 0 0 -9 6 -20z"/>
<path d="M1080 1026 c25 -28 100 -91 100 -84 0 2 -28 28 -62 58 -35 29 -52 41
-38 26z"/>
<path d="M1190 933 c0 -9 40 -36 45 -31 2 2 -8 11 -21 21 -13 10 -24 14 -24
10z"/>
<path d="M1294 866 c11 -9 24 -16 30 -16 12 0 7 5 -24 19 -24 11 -24 11 -6 -3z"/>
<path d="M995 637 c-111 -45 -174 -124 -200 -248 -12 -56 -6 -89 16 -89 5 0
26 -10 47 -23 32 -19 187 -93 247 -117 81 -32 149 -52 189 -53 25 -1 46 -5 46
-9 0 -5 4 -8 8 -8 9 0 32 124 34 185 4 98 -33 203 -95 272 -71 78 -214 122
-292 90z"/>
<path d="M2115 491 c-95 -12 -201 -101 -238 -201 -23 -62 -42 -189 -31 -200
16 -16 54 1 55 24 1 15 3 16 6 5 3 -13 10 -15 31 -8 15 4 56 15 92 24 106 27
362 163 376 200 8 19 -14 55 -55 93 -65 59 -127 76 -236 63z"/>
</g>
</svg>
